# xmcd CD database file
#
# Track frame offsets:
#	150
#	2475
#	23290
#	38372
#	51910
#	65910
#	80517
#	101535
#	122392
#	137470
#	151022
#	165010
#	179592
#	200607
#
# Disc length: 2720 seconds
#
# Revision: 1
# Processed by: cddbd v1.5.2PL0 Copyright (c) Steve Scherf et al.
# Submitted via: CDex 1.70beta3
#
DISCID=9a0a9e0e
DTITLE=てれび戦士2003 - 天才てれびくんMAX　天てれ上カルビ　MTK the 6th
DYEAR=2003
DGENRE=J-POP
TTITLE0=Instrumental - 2003年度オープニング・テーマ
TTITLE1=村上東奈 - あこがれ ～hip-hop version～
TTITLE2=豕瀬志穂 八木俊彦 コーラス：森若香織 - BE HAPPY DAY
TTITLE3=SPACE FAIRY (白木杏奈 俵有希子 中村有沙) - 恋にメリーゴーラウンド ～In For A Penny,In For A Pound～
TTITLE4=山元竜一 コーラス：Boys Be Boys (熊木翔 松井蘭丸) - ルーキー
TTITLE5=マイ☆コウ (堀江幸生 マイケル・メンツァー) コーラス：熊木翔 - 地図
TTITLE6=てれび戦士2003 - good day (フルバージョン)
TTITLE7=あこがれ ～hip-hop version～ (オリジナル・カラオケ)
TTITLE8=BE HAPPY DAY (オリジナル・カラオケ)
TTITLE9=恋にメリーゴーラウンド ～In For A Penny,In For A Pound～ (オリジナル・カラオケ)
TTITLE10=ルーキー (オリジナル・カラオケ)
TTITLE11=地図 (オリジナル・カラオケ)
TTITLE12=good day (フルバージョン) (オリジナル・カラオケ)
TTITLE13=スペースＢ級アイドル ナナセ - 恋人は宇宙人
EXTD=YEAR: 2003
EXTT0=
EXTT1=
EXTT2=
EXTT3=
EXTT4=
EXTT5=
EXTT6=
EXTT7=
EXTT8=
EXTT9=
EXTT10=
EXTT11=
EXTT12=
EXTT13=
PLAYORDER=
